<?xml version="1.0" encoding="utf-8"?>
<!-- Generator: Adobe Illustrator 23.1.1, SVG Export Plug-In . SVG Version: 6.00 Build 0)  -->
<svg version="1.1" id="Layer_1" xmlns="http://www.w3.org/2000/svg" xmlns:xlink="http://www.w3.org/1999/xlink" x="0px" y="0px"
	 viewBox="0 0 73 72.7" style="enable-background:new 0 0 73 72.7;" xml:space="preserve">
<style type="text/css">
	.st0{fill:#FFFFFF;}
</style>
<title>A_Housing_words</title>
<g>
	<path class="st0" d="M34.6,0.8c1-1,2.7-1,3.7,0l33.9,33.9c1,1,1,2.7,0,3.7l0,0c-1,1-2.7,1-3.7,0L38.4,8.3c-1-1-2.7-1-3.7,0
		L4.5,38.4c-1,1-2.7,1-3.7,0l0,0c-1-1-1-2.7,0-3.7L34.6,0.8z"/>
	<polygon class="st0" points="63,38.5 63,72.7 45.8,72.7 45.8,51.7 27.2,51.7 27.2,72.7 10,72.7 10,39 36.7,12.2 	"/>
</g>
</svg>
