<svg id="Layer_1" data-name="Layer 1" xmlns="http://www.w3.org/2000/svg" viewBox="0 0 233.56 73.18"><defs><style>.cls-1{fill:#fff;}</style></defs><title>A_Housing_words</title><path class="cls-1" d="M75.38,47.29a2.65,2.65,0,0,1,3.74,0L113,81.16a2.65,2.65,0,0,1,0,3.74l0,0a2.65,2.65,0,0,1-3.74,0L79.12,54.84a2.65,2.65,0,0,0-3.74,0l-30.1,30.1a2.65,2.65,0,0,1-3.74,0l0,0a2.65,2.65,0,0,1,0-3.74Z" transform="translate(-40.73 -46.52)"/><polygon class="cls-1" points="63.04 38.46 63.04 72.72 45.83 72.72 45.83 51.74 27.2 51.74 27.2 72.72 9.99 72.72 9.99 38.97 36.77 12.19 63.04 38.46"/><path class="cls-1" d="M141.62,75l-1.78,3.62h-4.59L145.61,59.3h4l3.59,19.27h-4.4L148.34,75Zm5.26-10.82-3.7,7.47h4.75Z" transform="translate(-40.73 -46.52)"/><path class="cls-1" d="M166.73,76.44a6.47,6.47,0,0,1-5.51,2.42c-3.46,0-5.32-1.7-5.32-4.83a16.23,16.23,0,0,1,.3-2.78l.11-.7c.43-2.35.89-3.48,1.86-4.51a6,6,0,0,1,4.59-1.78c2.83,0,4.56,1.11,5.29,3.35l-3.11,1.19a2.06,2.06,0,0,0-2.1-1.41c-1.43,0-2.22,1-2.65,3.48L160,72a11.47,11.47,0,0,0-.14,1.7c0,1.4.57,2,1.86,2a2.85,2.85,0,0,0,2.49-1.37Z" transform="translate(-40.73 -46.52)"/><path class="cls-1" d="M180.49,76.44a6.44,6.44,0,0,1-5.5,2.42c-3.46,0-5.32-1.7-5.32-4.83a16.23,16.23,0,0,1,.3-2.78l.11-.7c.43-2.35.89-3.48,1.86-4.51a6,6,0,0,1,4.59-1.78c2.83,0,4.56,1.11,5.29,3.35l-3.11,1.19a2.06,2.06,0,0,0-2.1-1.41c-1.43,0-2.22,1-2.65,3.48L173.75,72a11.47,11.47,0,0,0-.14,1.7c0,1.4.57,2,1.86,2A2.85,2.85,0,0,0,178,74.36Z" transform="translate(-40.73 -46.52)"/><path class="cls-1" d="M187.38,72.9a4.66,4.66,0,0,0-.11.89c0,1.35.73,2,2.22,2a3.45,3.45,0,0,0,3-1.46L195,76.44c-1.35,1.75-3,2.42-5.91,2.42-3.91,0-5.69-1.45-5.69-4.64a15.53,15.53,0,0,1,.27-2.72l.16-.89c.4-2.35.92-3.59,1.83-4.57a6.47,6.47,0,0,1,4.94-1.78c3.78,0,5.59,1.59,5.59,4.89a15.58,15.58,0,0,1-.43,3.4h-8.31Zm5.13-3a4.59,4.59,0,0,0,.11-1c0-1.21-.62-1.8-1.92-1.8a2.72,2.72,0,0,0-2.78,2.45l0,.33Z" transform="translate(-40.73 -46.52)"/><path class="cls-1" d="M200.83,74.36a2.73,2.73,0,0,0,2.8,1.48c1.57,0,2.54-.67,2.54-1.78,0-.7-.24-.81-2.56-1-2.78-.33-4.08-1.51-4.08-3.78,0-3.08,2.16-5,5.7-5,2.94,0,4.75.95,5.59,2.89l-3,1.57a2.53,2.53,0,0,0-2.48-1.44c-1.22,0-2,.6-2,1.57,0,.68.35.89,1.91,1.05,3.51.35,4.72,1.35,4.72,3.78,0,3.51-2.1,5.18-6.47,5.18-3.3,0-5.21-.94-5.89-2.86Z" transform="translate(-40.73 -46.52)"/><path class="cls-1" d="M215.35,74.36a2.74,2.74,0,0,0,2.81,1.48c1.57,0,2.54-.67,2.54-1.78,0-.7-.25-.81-2.57-1-2.78-.33-4.07-1.51-4.07-3.78,0-3.08,2.16-5,5.69-5,2.95,0,4.75.95,5.59,2.89l-3,1.57a2.52,2.52,0,0,0-2.48-1.44c-1.21,0-2,.6-2,1.57,0,.68.35.89,1.92,1.05,3.51.35,4.72,1.35,4.72,3.78,0,3.51-2.11,5.18-6.48,5.18-3.29,0-5.21-.94-5.88-2.86Z" transform="translate(-40.73 -46.52)"/><path class="cls-1" d="M229.69,64.59h3.94l-2.46,14h-3.94Zm1-5.51h3.94L234,62.8H230Z" transform="translate(-40.73 -46.52)"/><path class="cls-1" d="M239,59.3H243l-1,5.8a4.12,4.12,0,0,1,2.67-.84c3.1,0,4.7,1.41,4.7,4.19a18.32,18.32,0,0,1-.25,2.59l-.38,2c-.72,4.21-2.32,5.8-5.8,5.8a5.89,5.89,0,0,1-3-.62,6.41,6.41,0,0,1-.81-.67l-.43,1h-3Zm6.16,11.55a9.37,9.37,0,0,0,.13-1.49c0-1.35-.54-2-1.75-2-1.44,0-2.19.81-2.51,2.68l-.52,3a4.71,4.71,0,0,0-.11,1c0,1.14.63,1.7,1.84,1.7,1.48,0,2.21-1,2.67-3.45Z" transform="translate(-40.73 -46.52)"/><path class="cls-1" d="M259,59.3l-2.32,13.22a6,6,0,0,0-.16,1.24c0,1.24.51,1.62,2.1,1.62H259l-.57,3.19h-.54c-4,0-5.37-.89-5.37-3.59a20.14,20.14,0,0,1,.35-3.27L255.1,59.3Z" transform="translate(-40.73 -46.52)"/><path class="cls-1" d="M265.49,72.9a4.66,4.66,0,0,0-.11.89c0,1.35.73,2,2.22,2a3.45,3.45,0,0,0,3-1.46l2.53,2.08c-1.35,1.75-3,2.42-5.91,2.42-3.91,0-5.7-1.45-5.7-4.64a15.66,15.66,0,0,1,.28-2.72l.16-.89c.4-2.35.91-3.59,1.83-4.57a6.47,6.47,0,0,1,4.94-1.78c3.78,0,5.59,1.59,5.59,4.89a15.58,15.58,0,0,1-.43,3.4h-8.32Zm5.13-3a4.59,4.59,0,0,0,.11-1c0-1.21-.62-1.8-1.92-1.8A2.72,2.72,0,0,0,266,69.55l0,.33Z" transform="translate(-40.73 -46.52)"/><path class="cls-1" d="M141.35,94.06h4.15l-1.37,7.85h5.67l1.37-7.85h4.16l-3.4,19.27h-4.16l1.43-8.07h-5.67l-1.43,8.07H138Z" transform="translate(-40.73 -46.52)"/><path class="cls-1" d="M157.79,104.8c.73-4.16,2.59-5.78,6.72-5.78,3.86,0,5.67,1.41,5.67,4.38a13,13,0,0,1-.24,2.34l-.35,2.11c-.76,4.18-2.59,5.78-6.72,5.78-3.92,0-5.7-1.38-5.7-4.38a14.44,14.44,0,0,1,.24-2.35Zm8.26.78a9.64,9.64,0,0,0,.16-1.67c0-1.16-.62-1.76-1.89-1.76-1.59,0-2.29.89-2.75,3.43l-.24,1.51a8.36,8.36,0,0,0-.19,1.62c0,1.22.59,1.78,1.89,1.78,1.59,0,2.32-.89,2.75-3.4Z" transform="translate(-40.73 -46.52)"/><path class="cls-1" d="M178.88,99.35l-1.27,7.18a12.91,12.91,0,0,0-.24,2c0,1.19.45,1.76,1.45,1.76,1.41,0,2.08-1,2.54-3.67l1.3-7.26h3.91l-2.46,14h-2.62l-.32-1.16a4.11,4.11,0,0,1-3.64,1.46c-2.73,0-4.27-1.35-4.27-3.7a19.65,19.65,0,0,1,.41-3.4l1.27-7.18Z" transform="translate(-40.73 -46.52)"/><path class="cls-1" d="M190.81,109.12a2.74,2.74,0,0,0,2.81,1.48c1.56,0,2.54-.67,2.54-1.78,0-.7-.25-.81-2.57-1-2.78-.33-4.07-1.51-4.07-3.78,0-3.08,2.16-5,5.69-5,2.94,0,4.75,1,5.59,2.89l-3,1.57a2.52,2.52,0,0,0-2.48-1.43c-1.21,0-2,.59-2,1.56,0,.68.35.89,1.92,1,3.51.36,4.72,1.35,4.72,3.78,0,3.51-2.11,5.19-6.48,5.19-3.29,0-5.21-.95-5.88-2.87Z" transform="translate(-40.73 -46.52)"/><path class="cls-1" d="M205.15,99.35h3.94l-2.46,14h-3.94Zm1-5.51h3.94l-.65,3.73h-3.94Z" transform="translate(-40.73 -46.52)"/><path class="cls-1" d="M213.52,99.35h2.94l.16,1A4.78,4.78,0,0,1,220.29,99c2.78,0,4.35,1.38,4.35,3.81a18.75,18.75,0,0,1-.32,3L223,113.33h-3.94l1.32-7.53a8.73,8.73,0,0,0,.17-1.6c0-1.24-.52-1.83-1.54-1.83-1.54,0-2.24,1-2.73,3.7L215,113.33h-3.94Z" transform="translate(-40.73 -46.52)"/><path class="cls-1" d="M235.06,112.84a4.26,4.26,0,0,1-2.72.79c-3.16,0-4.67-1.35-4.67-4.19a14.11,14.11,0,0,1,.27-2.56l.35-2a7.89,7.89,0,0,1,1.64-4.21A5.09,5.09,0,0,1,234.12,99a5,5,0,0,1,3.7,1.16l.54-.83h3L239,112.79c-.43,2.48-1,3.83-2.07,5a6.78,6.78,0,0,1-5.16,1.94c-2.89,0-4.64-1-5.34-2.89l3.18-1.62a2,2,0,0,0,2.16,1.49c1.75,0,2.81-1.08,3.21-3.35Zm-3.24-5.8a8.94,8.94,0,0,0-.16,1.51c0,1.35.51,1.94,1.68,1.94,1.48,0,2.26-.8,2.59-2.67l.54-3a5.72,5.72,0,0,0,.08-.92,1.54,1.54,0,0,0-1.76-1.76c-1.48,0-2.29,1-2.72,3.46Z" transform="translate(-40.73 -46.52)"/></svg>