<svg id="a658ea8b-9338-44d3-a719-b1825aaa00db" data-name="Layer 1" xmlns="http://www.w3.org/2000/svg" viewBox="0 0 36.18 36.18">
  <defs>
    <style>
      .a883c5ec-81f3-4e52-9a15-f4f74c1f76e1 {
        fill: #189cd9;
      }
    </style>
  </defs>
  <path class="a883c5ec-81f3-4e52-9a15-f4f74c1f76e1" d="M18.09,36.18A18.09,18.09,0,1,1,36.18,18.09,18.11,18.11,0,0,1,18.09,36.18m0-34.48A16.39,16.39,0,1,0,34.48,18.09,16.41,16.41,0,0,0,18.09,1.7"/>
  <path class="a883c5ec-81f3-4e52-9a15-f4f74c1f76e1" d="M18.18,22.35A1.31,1.31,0,0,1,16.87,21V8.91a1.31,1.31,0,1,1,2.62,0V21a1.31,1.31,0,0,1-1.31,1.31"/>
  <path class="a883c5ec-81f3-4e52-9a15-f4f74c1f76e1" d="M20.06,26.61a2,2,0,1,1-2-2,2,2,0,0,1,2,2"/>
</svg>
