<?xml version="1.0" encoding="utf-8"?>
<!-- Generator: Adobe Illustrator 23.1.1, SVG Export Plug-In . SVG Version: 6.00 Build 0)  -->
<svg version="1.1" id="Layer_1" xmlns="http://www.w3.org/2000/svg" xmlns:xlink="http://www.w3.org/1999/xlink" x="0px" y="0px"
	 viewBox="0 0 41 41" style="enable-background:new 0 0 41 41;" xml:space="preserve">
<style type="text/css">
	.st0{fill:#009EE2;}
	.st1{fill:#010101;}
</style>
<title>Black_Tick_Blue_Circle</title>
<path class="st0" d="M20.5,0v2C30.6,2.1,38.8,10.1,39,20.2c0.2,10.2-7.9,18.6-18.1,18.8c0,0,0,0,0,0h-0.3C10.4,38.9,2.2,30.9,2,20.8
	C1.8,10.6,9.9,2.2,20.2,2h0.3L20.5,0 M20.5,0h-0.4C8.8,0.4,0,10,0.4,21.3C0.9,32.1,9.6,40.8,20.5,41h0.4
	c11.3-0.1,20.4-9.4,20.3-20.7S31.8-0.1,20.5,0z"/>
<g id="VRfQqc">
	<path class="st1" d="M17.5,22.2l7.1-7.4c0.6-0.6,1.2-1.3,1.8-1.9c0.7-0.9,1.9-1,2.8-0.3c0.1,0.1,0.1,0.1,0.2,0.2
		c0.8,0.7,0.9,2,0.1,2.8c-0.1,0.1-0.1,0.1-0.2,0.2c-3.4,3.6-6.9,7.1-10.3,10.6c-0.7,0.8-2,1-2.8,0.2c-0.1-0.1-0.1-0.1-0.2-0.2
		c-1.4-1.3-2.7-2.7-4.1-4c-0.9-0.7-1-2-0.3-2.8c0.1-0.1,0.1-0.1,0.2-0.2c0.8-0.8,2-0.8,2.8,0c0,0,0.1,0.1,0.1,0.1l2.6,2.6L17.5,22.2
		z"/>
</g>
</svg>
