<svg id="Layer_1" data-name="Layer 1" xmlns="http://www.w3.org/2000/svg" viewBox="0 0 235.54 59.89"><defs><style>.cls-1{fill:#fff;}.cls-2{fill:#d1d3d4;}</style></defs><title>Cloack_Hands_AW</title><path class="cls-1" d="M258.84,23.25l1.76.67c-2.41.54-4.67,1-6.93,1.55-4.93,1.14-9.91,2.19-14.78,3.47a24.21,24.21,0,0,0-10.14,5c-1.33,1.2-3.34,1.53-5.29,1.74a31,31,0,0,1-11.36-.85,6.86,6.86,0,0,0-3.4,0q-9.42,2.07-18.87,4.09c-10.78,2.29-21.55,4.6-32.34,6.84-5,1-10.07,2-15.1,2.9-1.51.29-1.56.32-1.54,1.46a3.83,3.83,0,0,1-1.95,3.08,16,16,0,0,1-6.27,2.46,29.69,29.69,0,0,1-13.3-.15,10.3,10.3,0,0,1-4.47-2.27c-1.61-1.53-1.5-3.33.32-4.87a15.55,15.55,0,0,1,7.42-3.06,27.54,27.54,0,0,1,15,1.07,2.56,2.56,0,0,0,1.17,0c9.06-1.86,18.11-3.79,27.19-5.59,5.74-1.14,11.53-2.11,17.3-3.12,6.71-1.19,13.42-2.34,20.13-3.51l4.62-.77c-.23-.44-.42-.82-.62-1.19-.7-1.31-.26-2.11,1.53-2.74a18.92,18.92,0,0,1,6.47-.88,159.05,159.05,0,0,0,18.76-.94c5.67-.62,11.22-1.72,16.76-2.86,2.16-.45,4.34-.86,6.51-1.29a5.08,5.08,0,0,0,.51-.17ZM121.76,51.47c.48.53.86,1,1.27,1.4s1,1.43,1.7,1.63a7.74,7.74,0,0,0,2.84-.43c1.6-.31,3.19-.66,4.92-1-1-1-1.93-1.93-2.88-2.82a1,1,0,0,0-.71-.17C126.57,50.5,124.25,51,121.76,51.47Z" transform="translate(-25.06 -23.25)"/><path class="cls-1" d="M72.21,57.12c3.19.63,6.33,1.23,9.46,1.87,8.42,1.73,16.92,3.28,25,5.68,4.18,1.23,8.22,2.69,12.29,4.1a2.81,2.81,0,0,0,2.45-.12,26.15,26.15,0,0,1,13.63-2.36,23,23,0,0,1,11,3.22,7.55,7.55,0,0,1,3.52,4.15c.75,2.68-.66,4.83-3.46,6.55a21.31,21.31,0,0,1-9.5,2.8,29.23,29.23,0,0,1-12.16-1.3c-3.2-1.13-5.85-2.7-7.16-5.22a4.22,4.22,0,0,1-.09-3.91c.42-.91.43-.92-.77-1.13a256.66,256.66,0,0,1-34.53-8.21c-3.8-1.22-7.45-2.69-11.12-4.12a3,3,0,0,0-2.39,0A24.77,24.77,0,0,1,58.19,61,31.62,31.62,0,0,1,53,60.19a4.51,4.51,0,0,1-2.93-2c-1.44-2.25-4-3.75-6.67-5.15a60.79,60.79,0,0,0-12.51-4.35l-5.86-1.56a3.92,3.92,0,0,1,3.29-.69c3.46.87,7,1.66,10.47,2.41a94.92,94.92,0,0,0,19,2.11c3,0,5.92-.05,8.87,0a15.38,15.38,0,0,1,3.59.58C74.06,52.58,74.79,54.68,72.21,57.12Zm60.4,12.55c-3.41.23-3.22,0-6.17,1.26-3.89,1.65-4.33,4.53-1,6.47,3.84,2.23,11,2.43,15.34.44,3.37-1.53,3.87-4.08,1.14-6C139.39,70.1,136,69.67,132.61,69.67Z" transform="translate(-25.06 -23.25)"/><path class="cls-2" d="M136.6,83a21.31,21.31,0,0,0,9.5-2.8,9.07,9.07,0,0,0,2.79-2.51l-5.82-1.48a6.13,6.13,0,0,1-2.26,1.62c-4.38,2-11.5,1.79-15.34-.44-2.92-1.69-3-4.09-.38-5.76L26.33,46.46a7.13,7.13,0,0,0-1.27.63l5.86,1.56A60.79,60.79,0,0,1,43.43,53c2.68,1.4,5.23,2.9,6.67,5.15a4.51,4.51,0,0,0,2.93,2,31.62,31.62,0,0,0,5.16.76,24.77,24.77,0,0,0,10.19-1.88,3,3,0,0,1,2.39,0c3.67,1.43,7.32,2.9,11.12,4.12a256.66,256.66,0,0,0,34.53,8.21c1.2.21,1.19.22.77,1.13a4.22,4.22,0,0,0,.09,3.91c1.31,2.52,4,4.09,7.16,5.22A29.23,29.23,0,0,0,136.6,83Z" transform="translate(-25.06 -23.25)"/><path class="cls-2" d="M132.49,51.15c-1.73.36-3.32.71-4.92,1a7.74,7.74,0,0,1-2.84.43c-.68-.18-1.08-.9-1.55-1.46l-8.62,1.75c.1.12.19.23.3.34a10.3,10.3,0,0,0,4.47,2.27,29.69,29.69,0,0,0,13.3.15,16,16,0,0,0,6.27-2.46,3.83,3.83,0,0,0,1.95-3.08c0-1.14,0-1.17,1.54-1.46,5-.95,10.09-1.86,15.1-2.9,10.79-2.24,21.56-4.55,32.34-6.84q9.45-2,18.87-4.09a6.86,6.86,0,0,1,3.4,0,31,31,0,0,0,11.36.85c1.95-.21,4-.54,5.29-1.74a24.21,24.21,0,0,1,10.14-5c4.87-1.28,9.85-2.33,14.78-3.47,2.26-.52,4.52-1,6.93-1.55l-.87-.33c-26.56,5.34-94.27,19-128.84,26Z" transform="translate(-25.06 -23.25)"/></svg>