<?xml version="1.0" encoding="utf-8"?>
<!-- Generator: Adobe Illustrator 23.1.1, SVG Export Plug-In . SVG Version: 6.00 Build 0)  -->
<svg version="1.1" id="Layer_1" xmlns="http://www.w3.org/2000/svg" xmlns:xlink="http://www.w3.org/1999/xlink" x="0px" y="0px"
	 viewBox="0 0 79.8 89" style="enable-background:new 0 0 79.8 89;" xml:space="preserve">
<style type="text/css">
	.st0{fill:#FFFFFF;}
</style>
<title>H_Adaptations_words</title>
<g>
	<path class="st0" d="M54,61.6L52.2,54c-3.7,9.5-14.4,14.3-23.9,10.6C18.7,60.8,14,50.1,17.7,40.6c1.7-4.3,4.9-7.8,9-9.9l-1.1-6
		C13.2,29.9,7.3,44.2,12.5,56.6S32,74.9,44.4,69.7c3.9-1.6,7.3-4.2,9.9-7.6C54.2,61.9,54.1,61.8,54,61.6z"/>
	<polygon class="st0" points="0,89 79.8,70.7 79.8,89 	"/>
	<path class="st0" d="M67.6,54.3l-4,1l-4.5-17.9c-0.4-1.7-2-3-3.8-2.9h-17L37.4,30h11.2c2.2,0,3.9-1.7,3.9-3.9
		c0-2.2-1.7-3.9-3.9-3.9c0,0,0,0,0,0H35.9l-1.7-8.4c3.6-1.7,5.2-6,3.5-9.6c-1.7-3.6-6-5.2-9.6-3.5C25.7,1.8,24,4.4,24,7.2
		c0,1.8,0.6,3.4,1.8,4.8L31,39.1c0.4,1.8,1.9,3.2,3.8,3.2h17.4L56.9,61c0.5,1.7,2,2.9,3.8,2.9c0.3,0,0.6,0,0.9-0.1l7.8-1.9
		c2.1-0.5,3.3-2.5,2.8-4.6c0,0,0,0,0-0.1c-0.4-2.1-2.5-3.5-4.6-3.1C67.7,54.2,67.6,54.3,67.6,54.3z"/>
</g>
</svg>
