<svg id="Layer_1" data-name="Layer 1" xmlns="http://www.w3.org/2000/svg" viewBox="0 0 259.48 89.06"><defs><style>.cls-1{fill:#fff;}</style></defs><title>H_Adaptations_words</title><path class="cls-1" d="M82.44,101.1l-1.85-7.61a18.5,18.5,0,1,1-25.5-23.25l-1.07-6a24.39,24.39,0,1,0,28.72,37.41A3.56,3.56,0,0,0,82.44,101.1Z" transform="translate(-28.44 -39.47)"/><polygon class="cls-1" points="0 89.06 79.84 70.75 79.84 89.06 0 89.06"/><path class="cls-1" d="M96,93.78l-4,1-4.5-17.87A3.79,3.79,0,0,0,83.71,74h-17l-.88-4.49H77.07a3.91,3.91,0,1,0,0-7.82H64.37l-1.66-8.4A7.22,7.22,0,1,0,52.46,46.7a7.39,7.39,0,0,0,1.75,4.78l5.28,27.16a4,4,0,0,0,3.81,3.22H80.69l4.68,18.66a4,4,0,0,0,3.81,2.93,2.62,2.62,0,0,0,.88-.1l7.82-1.86a3.83,3.83,0,0,0,2.83-4.68A3.89,3.89,0,0,0,96,93.78Z" transform="translate(-28.44 -39.47)"/><path class="cls-1" d="M138,60.42h4.16l-1.38,7.85h5.67l1.38-7.85H152l-3.4,19.27h-4.16l1.43-8.07h-5.67l-1.43,8.07h-4.16Z" transform="translate(-28.44 -39.47)"/><path class="cls-1" d="M154.41,71.16c.73-4.16,2.59-5.78,6.72-5.78,3.86,0,5.67,1.41,5.67,4.38a12.21,12.21,0,0,1-.25,2.34l-.35,2.11c-.75,4.18-2.59,5.78-6.72,5.78-3.91,0-5.69-1.38-5.69-4.38a14.23,14.23,0,0,1,.24-2.34Zm8.26.78a9.64,9.64,0,0,0,.16-1.67c0-1.16-.62-1.76-1.89-1.76-1.59,0-2.29.89-2.75,3.43l-.25,1.51a9,9,0,0,0-.18,1.62c0,1.22.59,1.79,1.88,1.79,1.6,0,2.33-.9,2.76-3.41Z" transform="translate(-28.44 -39.47)"/><path class="cls-1" d="M171.63,65.71h3l.11.94a4.51,4.51,0,0,1,3.35-1.27A4.22,4.22,0,0,1,181.73,67a4.44,4.44,0,0,1,3.72-1.57c2.84,0,4.32,1.3,4.32,3.73a17.77,17.77,0,0,1-.35,3l-1.32,7.53h-3.94l1.35-7.59a9.38,9.38,0,0,0,.16-1.67c0-1.13-.46-1.7-1.35-1.7-1.3,0-2,1-2.43,3.62l-1.3,7.34h-3.91l1.32-7.5a9.87,9.87,0,0,0,.19-1.71c0-1.18-.43-1.75-1.35-1.75-1.32,0-2,1-2.45,3.64l-1.27,7.32h-3.94Z" transform="translate(-28.44 -39.47)"/><path class="cls-1" d="M196.93,74a4.66,4.66,0,0,0-.11.89c0,1.35.73,2,2.22,2a3.45,3.45,0,0,0,3-1.46l2.53,2.08c-1.35,1.75-3,2.43-5.91,2.43-3.91,0-5.69-1.46-5.69-4.65a15.53,15.53,0,0,1,.27-2.72l.16-.89c.4-2.35.92-3.59,1.83-4.57a6.47,6.47,0,0,1,4.94-1.78c3.78,0,5.59,1.6,5.59,4.89a15.58,15.58,0,0,1-.43,3.4H197Zm5.13-3a4.57,4.57,0,0,0,.11-1c0-1.22-.62-1.81-1.92-1.81a2.73,2.73,0,0,0-2.78,2.45l-.05.33Z" transform="translate(-28.44 -39.47)"/><path class="cls-1" d="M138.23,110.83l-1.78,3.62h-4.59l10.37-19.27h4l3.59,19.27h-4.4l-.48-3.62ZM143.5,100l-3.7,7.48h4.75Z" transform="translate(-28.44 -39.47)"/><path class="cls-1" d="M160.59,113.56l-.22.16a4.11,4.11,0,0,1-3.1,1c-3.29,0-4.81-1.33-4.81-4.19a13.68,13.68,0,0,1,.27-2.56l.35-2c.38-2.16.81-3.26,1.62-4.18a5.12,5.12,0,0,1,4.16-1.65,6.67,6.67,0,0,1,2.48.44,2.91,2.91,0,0,1,.54.27,1.91,1.91,0,0,0,.25.13l1-5.8h3.94l-3.4,19.27h-3Zm-4-5.4a10.51,10.51,0,0,0-.13,1.51c0,1.32.54,2,1.67,2,1.49,0,2.27-.81,2.59-2.68l.54-3a5,5,0,0,0,.08-.92,1.54,1.54,0,0,0-1.75-1.76c-1.51,0-2.29,1-2.73,3.46Z" transform="translate(-28.44 -39.47)"/><path class="cls-1" d="M176.65,105.43a3,3,0,0,0,.11-.78c0-.92-.59-1.38-1.78-1.38a3.84,3.84,0,0,0-2.83,1.35l-2.38-1.89a6.59,6.59,0,0,1,5.56-2.59,6.83,6.83,0,0,1,4.37,1.3,3.24,3.24,0,0,1,1,2.56,16.33,16.33,0,0,1-.3,2.62L179,114.45h-3.08l-.13-.65a4.9,4.9,0,0,1-3.4,1c-3.08,0-4.54-1.14-4.54-3.49a6.11,6.11,0,0,1,1.33-4.15c.81-.87,2.07-1.22,4.34-1.22h3Zm-2.59,3a2.48,2.48,0,0,0-1.78.52,2.61,2.61,0,0,0-.59,1.73c0,.75.51,1.07,1.8,1.07,1.6,0,2.14-.48,2.43-2.18l.22-1.14Z" transform="translate(-28.44 -39.47)"/><path class="cls-1" d="M185.78,100.47h3l.27.78a4.51,4.51,0,0,1,3.16-1.11c3.24,0,4.78,1.35,4.78,4.19a14.06,14.06,0,0,1-.27,2.59l-.35,2c-.73,4.24-2.32,5.81-5.86,5.81a6.54,6.54,0,0,1-3.18-.81l-1.16,6.58h-3.95Zm7.1,6.26a10.48,10.48,0,0,0,.13-1.48c0-1.35-.54-2-1.67-2-1.46,0-2.27.84-2.59,2.68l-.54,3a6.31,6.31,0,0,0-.11,1,1.54,1.54,0,0,0,1.76,1.71c1.51,0,2.34-1,2.75-3.46Z" transform="translate(-28.44 -39.47)"/><path class="cls-1" d="M200.06,103.57l.54-3.1h1.62l.92-3.94h3.62l-.7,3.94h2.8l-.56,3.1h-2.78l-.79,4.46a7.94,7.94,0,0,0-.24,1.72c0,1.19.49,1.51,2.11,1.51h.32l-.57,3.19h-.46c-4.1,0-5.39-.81-5.39-3.43a22.38,22.38,0,0,1,.37-3.43l.71-4Z" transform="translate(-28.44 -39.47)"/><path class="cls-1" d="M218.37,105.43a3,3,0,0,0,.11-.78c0-.92-.6-1.38-1.79-1.38a3.84,3.84,0,0,0-2.83,1.35l-2.38-1.89a6.59,6.59,0,0,1,5.56-2.59,6.88,6.88,0,0,1,4.38,1.3,3.23,3.23,0,0,1,1,2.56,16.33,16.33,0,0,1-.3,2.62l-1.37,7.83h-3.08l-.14-.65a4.88,4.88,0,0,1-3.4,1c-3.07,0-4.53-1.14-4.53-3.49a6.1,6.1,0,0,1,1.32-4.15c.81-.87,2.08-1.22,4.35-1.22h3Zm-2.59,3A2.49,2.49,0,0,0,214,109a2.61,2.61,0,0,0-.59,1.73c0,.75.51,1.07,1.81,1.07,1.59,0,2.13-.48,2.43-2.18l.21-1.14Z" transform="translate(-28.44 -39.47)"/><path class="cls-1" d="M225.58,103.57l.54-3.1h1.62l.92-3.94h3.61l-.7,3.94h2.81l-.57,3.1H231l-.78,4.46a7.94,7.94,0,0,0-.24,1.72c0,1.19.48,1.51,2.1,1.51h.32l-.56,3.19h-.46c-4.1,0-5.4-.81-5.4-3.43a22.63,22.63,0,0,1,.38-3.43l.7-4Z" transform="translate(-28.44 -39.47)"/><path class="cls-1" d="M237.59,100.47h3.94l-2.45,14h-3.94Zm1-5.51h3.94l-.64,3.73h-3.94Z" transform="translate(-28.44 -39.47)"/><path class="cls-1" d="M244.61,105.92c.73-4.16,2.59-5.78,6.72-5.78,3.86,0,5.67,1.41,5.67,4.38a12.9,12.9,0,0,1-.24,2.34l-.35,2.11c-.76,4.18-2.59,5.78-6.72,5.78-3.92,0-5.7-1.38-5.7-4.38a13.35,13.35,0,0,1,.25-2.34Zm8.26.78A9.64,9.64,0,0,0,253,105c0-1.16-.62-1.76-1.88-1.76-1.6,0-2.3.9-2.76,3.43l-.24,1.51a8.44,8.44,0,0,0-.19,1.62c0,1.22.59,1.79,1.89,1.79,1.59,0,2.32-.89,2.75-3.41Z" transform="translate(-28.44 -39.47)"/><path class="cls-1" d="M261.84,100.47h2.94l.16,1a4.78,4.78,0,0,1,3.67-1.35c2.78,0,4.35,1.38,4.35,3.81a18.75,18.75,0,0,1-.32,3l-1.33,7.53h-3.94l1.32-7.53a8.72,8.72,0,0,0,.17-1.59c0-1.25-.52-1.84-1.54-1.84-1.54,0-2.24,1-2.73,3.7l-1.27,7.26h-3.94Z" transform="translate(-28.44 -39.47)"/><path class="cls-1" d="M277.93,110.24a2.74,2.74,0,0,0,2.81,1.48c1.56,0,2.53-.67,2.53-1.78,0-.7-.24-.81-2.56-1-2.78-.33-4.08-1.51-4.08-3.78,0-3.08,2.16-5,5.7-5,2.94,0,4.75,1,5.59,2.89l-3,1.57a2.52,2.52,0,0,0-2.48-1.43c-1.22,0-2,.59-2,1.56,0,.68.35.89,1.91,1,3.51.36,4.73,1.35,4.73,3.78,0,3.51-2.11,5.19-6.48,5.19-3.29,0-5.21-1-5.89-2.86Z" transform="translate(-28.44 -39.47)"/></svg>