<svg id="e19f31eb-37b9-4dce-af93-0e144e4f8fab" data-name="Layer 1" xmlns="http://www.w3.org/2000/svg" viewBox="0 0 121.53 145.26">
  <defs>
    <style>
      .bc912506-6126-4564-86f2-eea9842d3faf {
        fill: #fff;
      }
    </style>
  </defs>
  <path class="bc912506-6126-4564-86f2-eea9842d3faf" d="M116.29,134.78h-5c-.84-17.19-5.76-33.22-14-45.34A53.75,53.75,0,0,0,79.8,72.63a53.71,53.71,0,0,0,17.51-16.8c8.2-12.13,13.12-28.16,14-45.35h5a5.24,5.24,0,0,0,0-10.48H5.24a5.24,5.24,0,0,0,0,10.48h5c.85,17.19,5.77,33.22,14,45.35A54.5,54.5,0,0,0,40.6,72C34.48,75.21,29,82.38,24.21,89.44c-8.19,12.12-13.11,28.15-14,45.34h-5a5.24,5.24,0,1,0,0,10.48H116.29a5.24,5.24,0,0,0,0-10.48M100.87,10.48a84.4,84.4,0,0,1-7.22,30.44H27.88a84.45,84.45,0,0,1-7.23-30.44Zm-.13,122.29L66,111.09V78.48c18.31,3.67,32.61,26.06,34.74,54.29m-80,0c2.13-28.24,16.43-50.64,34.74-54.31v32.83Z"/>
</svg>
