<svg id="Layer_1" data-name="Layer 1" xmlns="http://www.w3.org/2000/svg" viewBox="0 0 55.82 120.51"><defs><style>.cls-1{fill:#009ee2;}.cls-2{fill:#58595b;}.cls-3{fill:#fff;}</style></defs><title>IAT_logo_AW</title><polygon class="cls-1" points="9.74 17.77 12.77 25.89 14.95 25.89 17.98 17.77 17.98 29.64 21.72 29.64 21.72 5.82 19.57 5.82 13.86 19.02 8.14 5.82 6 5.82 6 29.64 9.74 29.64 9.74 17.77"/><polygon class="cls-1" points="28.04 17.56 33.76 29.64 35.94 29.64 35.94 5.82 32.2 5.82 32.2 17.87 26.48 5.82 24.3 5.82 24.3 29.64 28.04 29.64 28.04 17.56"/><path class="cls-1" d="M85.22,59a5,5,0,0,0,1.32-1.9A6.92,6.92,0,0,0,87,54.59V42.35a5.7,5.7,0,0,0-1.7-4.42,5.51,5.51,0,0,0-4-1.43H75.66V60.31H81.3A5.59,5.59,0,0,0,85.22,59ZM79.4,40.24h1.9a2,2,0,0,1,1.4.41,2.33,2.33,0,0,1,.51,1.7V54.59a2,2,0,0,1-.48,1.6,2.09,2.09,0,0,1-1.43.38H79.4Z" transform="translate(-37.14 -30.67)"/><path class="cls-1" d="M69.12,74a.91.91,0,0,0,.21-.68v-.89a.93.93,0,0,0-.19-.65.86.86,0,0,0-.58-.15H68V74.2h.56A.8.8,0,0,0,69.12,74Z" transform="translate(-37.14 -30.67)"/><path class="cls-1" d="M74.18,71.55a.81.81,0,0,0-.56.16,1,1,0,0,0-.2.68v5.08a.94.94,0,0,0,.2.68.81.81,0,0,0,.56.17.76.76,0,0,0,.56-.17.86.86,0,0,0,.21-.68V72.39a.88.88,0,0,0-.21-.68A.77.77,0,0,0,74.18,71.55Z" transform="translate(-37.14 -30.67)"/><path class="cls-1" d="M68.77,75.7H68v2.51h.77a.85.85,0,0,0,.57-.15.87.87,0,0,0,.19-.65v-.87a.94.94,0,0,0-.2-.68A.81.81,0,0,0,68.77,75.7Z" transform="translate(-37.14 -30.67)"/><polygon class="cls-1" points="25.93 42.59 25.34 46.02 26.54 46.02 25.93 42.59"/><path class="cls-1" d="M37.23,30.67v79.22H93V30.67ZM53.65,86.14H50.16v18.4H46.73V86.14h-3.5V82.71H53.65ZM43.24,79.75V70.14h1.51v9.61Zm2.19-8.1V70.14H50v1.51H48.48v8.1H47v-8.1Zm5.6-.12a.83.83,0,0,1-.34-.66.77.77,0,0,1,1.54,0,1.51,1.51,0,0,1-.22.71,6.76,6.76,0,0,1-.42.7l-.36.53h-.44c0-.06.06-.17.11-.33s.13-.32.2-.5a.4.4,0,0,0,0-.2A.32.32,0,0,0,51,71.53Zm2.76,7.77a2.4,2.4,0,0,1-.68-1.8V76.25h1.51V77.5a1,1,0,0,0,.2.69.83.83,0,0,0,.57.16.78.78,0,0,0,.56-.16.89.89,0,0,0,.2-.69v-.6a1.44,1.44,0,0,0-.5-1.1,5.15,5.15,0,0,0-.58-.36,5.72,5.72,0,0,1-1-.6,3,3,0,0,1-.75-1,2.77,2.77,0,0,1-.26-1.21v-.24a2.4,2.4,0,0,1,.68-1.79,2.25,2.25,0,0,1,1.6-.57A2.23,2.23,0,0,1,57,70.6a2.36,2.36,0,0,1,.68,1.79v.84H56.15v-.84a.88.88,0,0,0-.2-.68.78.78,0,0,0-.56-.17.83.83,0,0,0-.57.17,1,1,0,0,0-.2.68v.24a1.39,1.39,0,0,0,.51,1.08,2.8,2.8,0,0,0,.53.33,5.77,5.77,0,0,1,1,.63,2.87,2.87,0,0,1,1,2.23v.6A2.37,2.37,0,0,1,57,79.3a2.27,2.27,0,0,1-1.59.56A2.29,2.29,0,0,1,53.79,79.3Zm5.31,25.24H55.67V82.71H59.1Zm16.71,0H72.38V93.66l-2.78,7.45h-2l-2.78-7.45v10.88H61.4V82.71h2l5.24,12.1,5.24-12.1h2ZM60.41,79.71l1.91-9.55h1.5l1.91,9.55H64.2l-.27-1.52H62.21l-.27,1.52ZM71,76.54v.87a2.64,2.64,0,0,1-.17,1,1.85,1.85,0,0,1-.52.76,2.23,2.23,0,0,1-1.57.54H66.5V70.16h2.06a2.25,2.25,0,0,1,1.57.53,1.82,1.82,0,0,1,.52.76,2.64,2.64,0,0,1,.18,1v.89a1.87,1.87,0,0,1-.55,1.47A2,2,0,0,1,71,76.54Zm5.42.93a2.4,2.4,0,0,1-.68,1.79,2.52,2.52,0,0,1-3.17,0,2.4,2.4,0,0,1-.68-1.79V72.39a2.36,2.36,0,0,1,.68-1.78,2.52,2.52,0,0,1,3.17,0,2.36,2.36,0,0,1,.68,1.78Zm2.63.68a.79.79,0,0,0,.57.17.81.81,0,0,0,.56-.17.94.94,0,0,0,.2-.68V70.16h1.5v7.31a2.4,2.4,0,0,1-.68,1.79,2.31,2.31,0,0,1-1.58.56,2.23,2.23,0,0,1-1.58-.56,2.37,2.37,0,0,1-.69-1.79V70.16h1.5v7.31A.9.9,0,0,0,79.08,78.15Zm8,8H81.43v5.49H85.3v3.43H81.43v6H87v3.43H78V82.71h9Zm0-14.48H85.52v8H84v-8H82.49v-1.5H87Zm4.54-6.58h-53V32h53Z" transform="translate(-37.14 -30.67)"/><path class="cls-1" d="M51.7,151.12h-4a4.29,4.29,0,0,1-3.33-1.52,5.08,5.08,0,0,1-.59-.84c-.2-.33-.32-.54-.36-.62a7.33,7.33,0,0,0-.54-.89,2.13,2.13,0,0,0-1.56-.7h-.62a1.33,1.33,0,0,0-1,.31,1.16,1.16,0,0,0-.25.84,1.2,1.2,0,0,0,.25.85,1.38,1.38,0,0,0,1,.31h1.26v2.26H40.67a3.46,3.46,0,0,1-2.69-1,3.81,3.81,0,0,1,0-4.77,3.46,3.46,0,0,1,2.69-1h.62a4.21,4.21,0,0,1,1.79.39,4.64,4.64,0,0,1,1.5,1.13,5.72,5.72,0,0,1,.5.65c.12.2.24.43.37.69l.26.5a3.36,3.36,0,0,0,.35.49,2.11,2.11,0,0,0,1.61.72h1.77v-4.59H51.7Z" transform="translate(-37.14 -30.67)"/><path class="cls-1" d="M51.86,138.68a3.36,3.36,0,0,1-.84,2.38,3.55,3.55,0,0,1-2.69,1H40.67a3.55,3.55,0,0,1-2.69-1,3.81,3.81,0,0,1,0-4.77,3.59,3.59,0,0,1,2.69-1h7.66a3.59,3.59,0,0,1,2.69,1A3.37,3.37,0,0,1,51.86,138.68Zm-12.46,0a1.19,1.19,0,0,0,.25.84,1.34,1.34,0,0,0,1,.31h7.66a1.34,1.34,0,0,0,1-.31,1.19,1.19,0,0,0,.25-.84,1.17,1.17,0,0,0-.25-.85,1.33,1.33,0,0,0-1-.31H40.67a1.33,1.33,0,0,0-1,.31A1.17,1.17,0,0,0,39.4,138.68Z" transform="translate(-37.14 -30.67)"/><path class="cls-1" d="M51.7,133h-4a4.29,4.29,0,0,1-3.33-1.52,5.41,5.41,0,0,1-.59-.83l-.36-.63a8.27,8.27,0,0,0-.54-.89,2.13,2.13,0,0,0-1.56-.7h-.62a1.33,1.33,0,0,0-1,.31,1.17,1.17,0,0,0-.25.85,1.19,1.19,0,0,0,.25.84,1.34,1.34,0,0,0,1,.31h1.26V133H40.67A3.46,3.46,0,0,1,38,132a3.81,3.81,0,0,1,0-4.77,3.46,3.46,0,0,1,2.69-1h.62a4.21,4.21,0,0,1,1.79.39,4.64,4.64,0,0,1,1.5,1.13,5.72,5.72,0,0,1,.5.65c.12.2.24.43.37.69s.17.33.26.51a3.27,3.27,0,0,0,.35.48,2.11,2.11,0,0,0,1.61.72h1.77v-4.59H51.7Z" transform="translate(-37.14 -30.67)"/><path class="cls-1" d="M40.28,124l-3-3.27v-1.29H51.7v2.26H41.25l2.1,2.3Z" transform="translate(-37.14 -30.67)"/><rect class="cls-2" x="17.3" y="99.21" width="38.52" height="0.5"/><rect class="cls-2" x="17.3" y="88.8" width="38.52" height="0.5"/><rect class="cls-2" x="17.3" y="109.61" width="38.52" height="0.5"/><rect class="cls-2" x="17.3" y="120.01" width="38.52" height="0.5"/><path class="cls-3" d="M55.46,138.6h-1v-6.54H56a1.5,1.5,0,0,1,1.09.4,1.55,1.55,0,0,1,.46,1.21v.71a1.58,1.58,0,0,1-.46,1.22A1.53,1.53,0,0,1,56,136h-.52Zm0-3.64H56a.54.54,0,0,0,.39-.12.62.62,0,0,0,.14-.46v-.71a.68.68,0,0,0-.14-.47.59.59,0,0,0-.39-.11h-.52Z" transform="translate(-37.14 -30.67)"/><path class="cls-3" d="M60.45,138.6l-.19-1H59.08l-.18,1h-1l1.31-6.54h1l1.31,6.54Zm-1.19-2.07h.82l-.41-2.34Z" transform="translate(-37.14 -30.67)"/><path class="cls-3" d="M65.48,138.6h-1L63.9,136h-.47v2.63h-1v-6.54H64a1.49,1.49,0,0,1,1.08.4,1.55,1.55,0,0,1,.46,1.21v.7a1.56,1.56,0,0,1-.46,1.22l-.15.12Zm-1-4.93a.68.68,0,0,0-.14-.47.57.57,0,0,0-.38-.11h-.53V135H64a.57.57,0,0,0,.38-.11.66.66,0,0,0,.14-.47Z" transform="translate(-37.14 -30.67)"/><path class="cls-3" d="M66.52,138.6v-6.54h1v5.51h1.68v1Z" transform="translate(-37.14 -30.67)"/><path class="cls-3" d="M70.13,138.6v-6.54h1v6.54Z" transform="translate(-37.14 -30.67)"/><path class="cls-3" d="M74.66,138.6l-.19-1H73.3l-.19,1h-1l1.31-6.54h1l1.31,6.54Zm-1.19-2.07h.83l-.41-2.34Z" transform="translate(-37.14 -30.67)"/><path class="cls-3" d="M80.34,132.06h.59v6.54h-1v-3.26l-.84,2.23h-.59l-.83-2.23v3.26h-1v-6.54h.59l1.57,3.62Z" transform="translate(-37.14 -30.67)"/><path class="cls-3" d="M84.8,133.09H83.12v1.64h1.15v1H83.12v1.81H84.8v1H82.09v-6.54H84.8Z" transform="translate(-37.14 -30.67)"/><path class="cls-3" d="M89,132.06v6.54h-.6l-1.57-3.32v3.32h-1v-6.54h.6L88,135.37v-3.31Z" transform="translate(-37.14 -30.67)"/><path class="cls-3" d="M93,132.06v1h-1v5.51h-1v-5.51h-1v-1Z" transform="translate(-37.14 -30.67)"/><path class="cls-3" d="M55.82,128.27a1.53,1.53,0,0,1-1.08-.38,1.6,1.6,0,0,1-.47-1.23v-.85h1v.85a.6.6,0,0,0,.14.47.56.56,0,0,0,.38.11.54.54,0,0,0,.38-.11.63.63,0,0,0,.14-.47v-.41a1,1,0,0,0-.34-.74,2.22,2.22,0,0,0-.4-.25,3.4,3.4,0,0,1-.64-.41,2,2,0,0,1-.51-.68,1.89,1.89,0,0,1-.18-.82v-.16a1.59,1.59,0,0,1,.47-1.22,1.72,1.72,0,0,1,2.16,0,1.63,1.63,0,0,1,.47,1.22v.57h-1v-.57a.64.64,0,0,0-.14-.47.54.54,0,0,0-.38-.11.56.56,0,0,0-.38.11.62.62,0,0,0-.14.47v.16a1,1,0,0,0,.34.74,2.49,2.49,0,0,0,.37.22,4.67,4.67,0,0,1,.67.43,2,2,0,0,1,.69,1.51v.41a1.63,1.63,0,0,1-.47,1.23A1.53,1.53,0,0,1,55.82,128.27Z" transform="translate(-37.14 -30.67)"/><path class="cls-3" d="M59.86,128.27a1.56,1.56,0,0,1-1.08-.38,1.68,1.68,0,0,1-.47-1.23v-3.47a1.66,1.66,0,0,1,.47-1.22,1.52,1.52,0,0,1,1.08-.38,1.49,1.49,0,0,1,1.08.38,1.63,1.63,0,0,1,.47,1.22v.58h-1v-.58a.64.64,0,0,0-.13-.47.59.59,0,0,0-.39-.11.57.57,0,0,0-.38.11.62.62,0,0,0-.14.47v3.47a.6.6,0,0,0,.14.47.57.57,0,0,0,.38.11.59.59,0,0,0,.39-.11.63.63,0,0,0,.13-.47v-.84h1v.84a1.63,1.63,0,0,1-.47,1.23A1.53,1.53,0,0,1,59.86,128.27Z" transform="translate(-37.14 -30.67)"/><path class="cls-3" d="M63.93,128.27a1.53,1.53,0,0,1-1.08-.38,1.63,1.63,0,0,1-.47-1.23v-3.47a1.63,1.63,0,0,1,.47-1.22A1.72,1.72,0,0,1,65,122a1.63,1.63,0,0,1,.47,1.22v3.47a1.63,1.63,0,0,1-.47,1.23A1.53,1.53,0,0,1,63.93,128.27Zm0-5.66a.56.56,0,0,0-.38.11.62.62,0,0,0-.14.47v3.47a.6.6,0,0,0,.14.47.56.56,0,0,0,.38.11.54.54,0,0,0,.38-.11.59.59,0,0,0,.14-.47v-3.47a.6.6,0,0,0-.14-.47A.54.54,0,0,0,63.93,122.61Z" transform="translate(-37.14 -30.67)"/><path class="cls-3" d="M69.39,121.66v1h-1v5.5h-1v-5.5h-1v-1Z" transform="translate(-37.14 -30.67)"/><path class="cls-3" d="M73.09,121.66v1h-1v5.5H71v-5.5H70v-1Z" transform="translate(-37.14 -30.67)"/><path class="cls-3" d="M74,128.19v-6.53h1v6.53Z" transform="translate(-37.14 -30.67)"/><path class="cls-3" d="M77.55,128.27a1.57,1.57,0,0,1-1.09-.38,1.63,1.63,0,0,1-.46-1.23v-.85h1v.85a.64.64,0,0,0,.14.47.59.59,0,0,0,.39.11.56.56,0,0,0,.38-.11.63.63,0,0,0,.14-.47v-.41a1,1,0,0,0-.35-.74,2.41,2.41,0,0,0-.39-.25,3.1,3.1,0,0,1-.64-.41,2,2,0,0,1-.52-.68,2,2,0,0,1-.17-.82v-.16a1.62,1.62,0,0,1,.46-1.22,1.74,1.74,0,0,1,2.17,0,1.63,1.63,0,0,1,.47,1.22v.57h-1v-.57a.64.64,0,0,0-.14-.47.56.56,0,0,0-.38-.11.59.59,0,0,0-.39.11.66.66,0,0,0-.14.47v.16a1,1,0,0,0,.35.74,2.83,2.83,0,0,0,.36.22,3.73,3.73,0,0,1,.67.43,1.93,1.93,0,0,1,.7,1.51v.41a1.63,1.63,0,0,1-.47,1.23A1.56,1.56,0,0,1,77.55,128.27Z" transform="translate(-37.14 -30.67)"/><path class="cls-3" d="M82.18,121.66h1v6.53h-1v-2.83H81.13v2.83h-1v-6.53h1v2.67h1.05Z" transform="translate(-37.14 -30.67)"/><path class="cls-3" d="M57.14,143.49H55.46v1.65h1.16v1H55.46V148h1.68v1h-2.7v-6.53h2.7Z" transform="translate(-37.14 -30.67)"/><path class="cls-3" d="M58.19,149v-6.53h1V148h1.68v1Z" transform="translate(-37.14 -30.67)"/><path class="cls-3" d="M64.51,143.49H62.83v1.65H64v1H62.83V148h1.68v1H61.8v-6.53h2.71Z" transform="translate(-37.14 -30.67)"/><path class="cls-3" d="M66.92,149.07a1.55,1.55,0,0,1-1.08-.38,1.66,1.66,0,0,1-.47-1.22V144a1.68,1.68,0,0,1,.47-1.23,1.6,1.6,0,0,1,1.08-.38,1.57,1.57,0,0,1,1.09.38,1.63,1.63,0,0,1,.46,1.23v.58h-1V144a.63.63,0,0,0-.14-.47.59.59,0,0,0-.39-.11.57.57,0,0,0-.38.11.64.64,0,0,0-.14.47v3.47a.66.66,0,0,0,.14.47.57.57,0,0,0,.38.11.59.59,0,0,0,.39-.11.63.63,0,0,0,.14-.47v-.84h1v.84a1.61,1.61,0,0,1-.46,1.22A1.53,1.53,0,0,1,66.92,149.07Z" transform="translate(-37.14 -30.67)"/><path class="cls-3" d="M72.35,142.47v1h-1V149h-1v-5.51h-1v-1Z" transform="translate(-37.14 -30.67)"/><path class="cls-3" d="M73.21,149v-6.53h1V149Z" transform="translate(-37.14 -30.67)"/><path class="cls-3" d="M76.86,149.07a1.49,1.49,0,0,1-1.08-.38,1.61,1.61,0,0,1-.47-1.22V144a1.63,1.63,0,0,1,.47-1.23,1.53,1.53,0,0,1,1.08-.38,1.57,1.57,0,0,1,1.09.38,1.63,1.63,0,0,1,.46,1.23v3.47a1.61,1.61,0,0,1-.46,1.22A1.53,1.53,0,0,1,76.86,149.07Zm0-5.65a.57.57,0,0,0-.38.11.64.64,0,0,0-.14.47v3.47a.66.66,0,0,0,.14.47.57.57,0,0,0,.38.11.59.59,0,0,0,.39-.11.63.63,0,0,0,.14-.47V144a.63.63,0,0,0-.14-.47A.59.59,0,0,0,76.86,143.42Z" transform="translate(-37.14 -30.67)"/><path class="cls-3" d="M82.64,142.47V149H82l-1.57-3.31V149h-1v-6.53h.6l1.56,3.3v-3.3Z" transform="translate(-37.14 -30.67)"/><path class="cls-3" d="M85.16,149.07a1.49,1.49,0,0,1-1.08-.38,1.61,1.61,0,0,1-.47-1.22v-.85h1v.85a.62.62,0,0,0,.14.47.57.57,0,0,0,.38.11.54.54,0,0,0,.38-.11.59.59,0,0,0,.14-.47v-.41a1,1,0,0,0-.34-.75l-.39-.24a3.74,3.74,0,0,1-.65-.41,2.21,2.21,0,0,1-.51-.68,1.92,1.92,0,0,1-.18-.82V144a1.63,1.63,0,0,1,.47-1.23,1.72,1.72,0,0,1,2.16,0,1.63,1.63,0,0,1,.47,1.23v.57h-1V144a.59.59,0,0,0-.14-.47.54.54,0,0,0-.38-.11.57.57,0,0,0-.38.11.6.6,0,0,0-.14.47v.16a.94.94,0,0,0,.34.73,2.89,2.89,0,0,0,.37.23,3.39,3.39,0,0,1,.67.43,1.94,1.94,0,0,1,.69,1.51v.41a1.61,1.61,0,0,1-.47,1.22A1.49,1.49,0,0,1,85.16,149.07Z" transform="translate(-37.14 -30.67)"/></svg>