<svg id="Layer_1" data-name="Layer 1" xmlns="http://www.w3.org/2000/svg" viewBox="0 0 75.34 29.05"><defs><style>.cls-1{fill:#009ee2;}</style></defs><title>MNDS_logo_blue_AW</title><path class="cls-1" d="M51.23,31.11h0a1.86,1.86,0,0,0-3.57-.4l-1.87,5.62a25.37,25.37,0,0,0-.74,2.73h0c-.23-1-.48-2-.73-2.77l-1.78-5.45h0a1.86,1.86,0,0,0-3.61.28h0L37.11,42.68h2.57l.74-6c.16-1.15.29-2.18.37-3.35h0a24.58,24.58,0,0,0,.84,3.27l1.56,4.78a.05.05,0,0,1,0,0A1.86,1.86,0,0,0,45,42.65a1.7,1.7,0,0,0,1.6-1.23l1.69-5.34a25.27,25.27,0,0,0,.72-2.8h0c.09.91.21,1.94.4,3.13l.94,6.27H53Z" transform="translate(-37.11 -25.03)"/><path class="cls-1" d="M39,52.84a6.88,6.88,0,0,1-1.74-.2l.16-1.4a4.28,4.28,0,0,0,1.64.33c.68,0,1.26-.28,1.26-1,0-1.44-3.17-.78-3.17-3.26,0-1.34,1-2.26,2.84-2.26a7.06,7.06,0,0,1,1.36.14l-.13,1.27a4.32,4.32,0,0,0-1.3-.21c-.84,0-1.23.37-1.23.91,0,1.34,3.22.84,3.22,3.23,0,1.39-1.17,2.43-2.91,2.43" transform="translate(-37.11 -25.03)"/><path class="cls-1" d="M45.23,52.82c-1.54,0-2.5-.81-2.5-2.69s.9-3.06,2.82-3.06a3.88,3.88,0,0,1,1.21.19l-.22,1.23a2.88,2.88,0,0,0-1-.21c-.84,0-1.28.68-1.28,1.7s.35,1.61,1.3,1.61a2.82,2.82,0,0,0,1.08-.22l.19,1.19a4.56,4.56,0,0,1-1.56.26" transform="translate(-37.11 -25.03)"/><path class="cls-1" d="M49.9,52.83c-1.57,0-2.58-.82-2.58-2.79a2.79,2.79,0,0,1,2.83-3c1.57,0,2.59.87,2.59,2.78a2.81,2.81,0,0,1-2.84,3m.15-4.56c-.64,0-1.26.49-1.26,1.62s.41,1.72,1.24,1.72,1.23-.57,1.23-1.69-.37-1.65-1.21-1.65" transform="translate(-37.11 -25.03)"/><path class="cls-1" d="M55.73,52.83c-1.23,0-1.61-.45-1.61-1.74V48.28h-1v-1.1h1V45.47l1.42-.38v2.09h1.35v1.1H55.54v2.43c0,.71.17.91.66.91a2.09,2.09,0,0,0,.63-.08l.1,1.13a5.19,5.19,0,0,1-1.2.16" transform="translate(-37.11 -25.03)"/><path class="cls-1" d="M64.08,52.72a7,7,0,0,1,0-.94h0a1.87,1.87,0,0,1-1.77,1.06,1.49,1.49,0,0,1-1.58-1.59c0-1.31,1.27-1.94,3.2-1.94V49c0-.58-.28-.89-1.08-.89a3.78,3.78,0,0,0-1.56.39l-.26-1.12a6.25,6.25,0,0,1,2.06-.36c1.76,0,2.26.73,2.26,1.87v2.37c0,.44,0,1,0,1.43ZM64,50.23c-1.45,0-1.84.38-1.84.86a.61.61,0,0,0,.66.64A1.27,1.27,0,0,0,64,50.4Z" transform="translate(-37.11 -25.03)"/><path class="cls-1" d="M75.91,52.71a7.7,7.7,0,0,1,.07-.92h0a1.86,1.86,0,0,1-1.75,1.05c-1.35,0-2-1-2-2.6a2.85,2.85,0,0,1,2.93-3.16,5.48,5.48,0,0,1,.7,0V44.61h1.42v8.1Zm-.09-4.42a3.18,3.18,0,0,0-.74-.09c-.82,0-1.4.51-1.4,1.88,0,1,.3,1.58.95,1.58s1.19-.87,1.19-1.82Z" transform="translate(-37.11 -25.03)"/><path class="cls-1" d="M69.89,52.71V49.17c0-.57-.15-.91-.68-.91-.72,0-1.29.81-1.29,1.78v2.67H66.49V47.17h1.35a5.85,5.85,0,0,1-.08,1h0a2,2,0,0,1,1.89-1.11c1.25,0,1.65.79,1.65,1.76v3.89Z" transform="translate(-37.11 -25.03)"/><path class="cls-1" d="M60,51.75a.4.4,0,0,1-.46-.1c-.1-.16-.14-.3-.14-1.17V44.61H58V51c0,.55,0,1.84,1.42,1.84a2.19,2.19,0,0,0,.7-.11Z" transform="translate(-37.11 -25.03)"/><path class="cls-1" d="M61.73,41.7a2,2,0,0,0,3.74-1V29.54H63v4.09c0,1.61,0,3.95.13,5.27-.48-1-1-2.08-1.61-3.09l-3.09-5.29a2,2,0,0,0-3.74,1V42.68h2.46V38c0-1.58-.06-3.64-.14-4.77.39.86.85,1.83,1.42,2.82Z" transform="translate(-37.11 -25.03)"/><path class="cls-1" d="M71.73,29.46c-1.62,0-3.21.06-4.24.1V40.07a2.67,2.67,0,0,0,1,2.11,4,4,0,0,0,2.61.58c4.29,0,7.25-2.36,7.25-6.87s-2.59-6.43-6.66-6.43M74,39.69a4.21,4.21,0,0,1-1.84.72,6.33,6.33,0,0,1-1.23,0c-.38,0-.94,0-.94-.55V31.64c.4,0,1-.05,1.53-.05,3,0,4.11,1.67,4.11,4.49A4.31,4.31,0,0,1,74,39.69" transform="translate(-37.11 -25.03)"/><path class="cls-1" d="M94.72,37.14l-1.41-1.61s-.86.69-3.69-.32A14.5,14.5,0,0,1,85.35,32a5,5,0,0,1,3.52.32c-1.33-1.23-2.08-4.43-2.08-4.43s3.15.74,3.63,2.08a16.51,16.51,0,0,1,0-4.33s2.52,2.09,2.89,3.85C94,26.66,95.66,26,95.66,26s-.11,2.94.11,5.88A7.75,7.75,0,0,1,95,34.78l.08.49c-.6.32-.42,1.35-.34,1.89Z" transform="translate(-37.11 -25.03)"/><path class="cls-1" d="M98.32,34.92a16.66,16.66,0,0,1-1.18-4.12,19.07,19.07,0,0,1,.65-5.13,5.72,5.72,0,0,1,1.92,2.94A11.86,11.86,0,0,1,102,25a8.6,8.6,0,0,1,.81,3.84,8.87,8.87,0,0,1,3.58-1.71,5.61,5.61,0,0,1-1.13,4.39c2.94-.8,3.32.21,3.32.21s-1.87,1.76-3.37,3.05-5.08.91-5.08.91l-.31.4a6.42,6.42,0,0,0-.81.48c0-.49-.09-1.42-.64-1.68" transform="translate(-37.11 -25.03)"/><path class="cls-1" d="M101.86,38.17a38.73,38.73,0,0,0,4.41-2.56,20.24,20.24,0,0,1,5.62-2.22,21,21,0,0,1-3.41,2.55,8.31,8.31,0,0,0,4-.22,7.81,7.81,0,0,1-2.84,2.1c1.82.85,1.36,1,1.36,1a10.41,10.41,0,0,1-4.48,1.25,4.39,4.39,0,0,1,1.59,2,16.21,16.21,0,0,0-4.15-2.61,5.86,5.86,0,0,0-1.52-.29.63.63,0,0,0,0-.45.8.8,0,0,0-.59-.55" transform="translate(-37.11 -25.03)"/><path class="cls-1" d="M92,40.33l-1,.2a11.23,11.23,0,0,1-2,1.82c-2.37,1.49-7.17.33-7.17.33a14.13,14.13,0,0,1,2.73-2.23,7.49,7.49,0,0,1-3.93-2.06s3.09-1.29,4-1.11a5.56,5.56,0,0,1-2.64-1.61s3.1-.59,4.13.42a4.16,4.16,0,0,1-.68-2.34,37.71,37.71,0,0,1,3.7,2.94c1,1,2.32,2.61,2.32,2.61l.78.15a.78.78,0,0,0-.36.61.76.76,0,0,0,0,.27" transform="translate(-37.11 -25.03)"/><path class="cls-1" d="M94.45,43.16a3.38,3.38,0,0,0-.5,1.89c.57,4.78-4.14,8.33-4.14,8.33s-.62-.64-.18-4a4.27,4.27,0,0,1-3.8,2.09,17.93,17.93,0,0,1,1.72-3.7c-4,.6-4.36,0-4.36,0a11.75,11.75,0,0,1,2.14-2.32c-1.16.06-1.37-.38-1.37-.38a21.41,21.41,0,0,1,4.39-1.68,21.73,21.73,0,0,1,4.13-.18l.34-.19a.87.87,0,0,0,.7.27,3.77,3.77,0,0,0,.93-.16" transform="translate(-37.11 -25.03)"/><path class="cls-1" d="M98.09,45.43a3,3,0,0,0,.72.84c4.92,3.74,6.74,6.79,6.74,6.79a25.71,25.71,0,0,1-3.85-1.71,8.45,8.45,0,0,1,1.18,2,15.13,15.13,0,0,1-3.42-2.24A4.55,4.55,0,0,1,98,54.07a4.36,4.36,0,0,1-1.82-3c-.48,1.12-2.67,2.72-2.67,2.72a21,21,0,0,1,1.28-4,20.9,20.9,0,0,1,2.35-3.26l0-1.62c.22.35.51.64.9.59l.11,0" transform="translate(-37.11 -25.03)"/><path class="cls-1" d="M101,42.32l2.82,1.17a14.64,14.64,0,0,1,4.17-.8A14.57,14.57,0,0,1,112.28,44,32,32,0,0,0,109,45c3.26.86,3.21,1.5,3.21,1.5a37,37,0,0,0-4-.22A7.21,7.21,0,0,1,110,49.21s-3.21-.05-4.22-.86a8.61,8.61,0,0,1-.43,3.32s-.16-.7-3.16-3.47c-1-.91-.53-3.37-.53-3.37l-.76-.88a1,1,0,0,0,0-.51,4.61,4.61,0,0,0-.41-1.15c.11,0,.24,0,.38,0" transform="translate(-37.11 -25.03)"/><path class="cls-1" d="M100.52,43.51a7.42,7.42,0,0,0-.79-1.77c.15,0,2.9.43,2.09-.51a7.73,7.73,0,0,0-1.61-1.06c.13-.07,2.67-1.2,1.49-1.55a3,3,0,0,0-1-.07l-.91.05.45-.78c.81-1.42.39-1.8-.94-.84l-.74.53c0-.14,0-2.93-.79-2a7.31,7.31,0,0,0-.82,1.75c-.09-.12-1.58-2.47-1.76-1.25a3.41,3.41,0,0,0,.08,1l.18.89-.83-.33c-1.52-.6-1.84-.14-.7,1l.63.66c-.14,0-2.9.4-1.86,1.07a7.2,7.2,0,0,0,1.85.57l-.65.61c-.19.19-1.3,1.3-.34,1.3a3.15,3.15,0,0,0,1-.23l.86-.3c0,.15-.84,2.81.2,2.15a3.37,3.37,0,0,0,.72-.74l.56-.71.3.84c.53,1.55,1.09,1.48,1.24-.15l.08-.91.71.55c.21.16,1.46,1.1,1.33.16" transform="translate(-37.11 -25.03)"/></svg>