<?xml version="1.0" encoding="utf-8"?>
<!-- Generator: Adobe Illustrator 23.1.1, SVG Export Plug-In . SVG Version: 6.00 Build 0)  -->
<svg version="1.1" id="Layer_1" xmlns="http://www.w3.org/2000/svg" xmlns:xlink="http://www.w3.org/1999/xlink" x="0px" y="0px"
	 viewBox="0 0 75.3 29" style="enable-background:new 0 0 75.3 29;" xml:space="preserve">
<style type="text/css">
	.st0{fill:#FFFFFF;}
</style>
<title>MNDS_logo_blue_AW</title>
<path class="st0" d="M14.1,6.1L14.1,6.1C14,5.1,13,4.4,12,4.5c-0.7,0.1-1.2,0.5-1.5,1.2l-1.9,5.6c-0.3,0.9-0.5,1.8-0.7,2.7l0,0
	c-0.2-1-0.5-2-0.7-2.8L5.4,5.8l0,0c-0.3-1-1.4-1.5-2.3-1.2C2.4,4.8,1.9,5.4,1.8,6.1l0,0L0,17.6h2.6l0.7-6c0.2-1.2,0.3-2.2,0.4-3.3
	l0,0c0.2,1.1,0.5,2.2,0.8,3.3l1.6,4.8l0,0c0.3,0.8,1,1.3,1.8,1.3c0.7,0,1.4-0.5,1.6-1.2l1.7-5.3c0.3-0.9,0.5-1.9,0.7-2.8l0,0
	c0.1,0.9,0.2,1.9,0.4,3.1l0.9,6.3h2.7L14.1,6.1z"/>
<path class="st0" d="M1.9,27.8c-0.6,0-1.2-0.1-1.7-0.2l0.2-1.4c0.5,0.2,1.1,0.3,1.6,0.3c0.7,0,1.3-0.3,1.3-1c0-1.4-3.2-0.8-3.2-3.3
	C0,20.9,1,20,2.9,20c0.5,0,0.9,0,1.4,0.1l-0.1,1.3c-0.4-0.1-0.9-0.2-1.3-0.2c-0.8,0-1.2,0.4-1.2,0.9c0,1.3,3.2,0.8,3.2,3.2
	C4.8,26.8,3.6,27.8,1.9,27.8"/>
<path class="st0" d="M8.1,27.8c-1.5,0-2.5-0.8-2.5-2.7S6.5,22,8.4,22c0.4,0,0.8,0.1,1.2,0.2l-0.2,1.2c-0.3-0.1-0.7-0.2-1-0.2
	c-0.8,0-1.3,0.7-1.3,1.7s0.3,1.6,1.3,1.6c0.4,0,0.7-0.1,1.1-0.2l0.2,1.2C9.2,27.7,8.7,27.8,8.1,27.8"/>
<path class="st0" d="M12.8,27.8c-1.6,0-2.6-0.8-2.6-2.8c-0.1-1.5,1-2.9,2.6-3c0.1,0,0.2,0,0.3,0c1.6,0,2.6,0.9,2.6,2.8
	c0.1,1.5-1.1,2.9-2.6,3C12.9,27.8,12.9,27.8,12.8,27.8 M12.9,23.2c-0.6,0-1.3,0.5-1.3,1.6s0.4,1.7,1.2,1.7s1.2-0.6,1.2-1.7
	S13.8,23.2,12.9,23.2"/>
<path class="st0" d="M18.6,27.8c-1.2,0-1.6-0.5-1.6-1.7v-2.8h-1v-1.1h1v-1.7l1.4-0.4v2.1h1.3v1.1h-1.3v2.4c0,0.7,0.2,0.9,0.7,0.9
	c0.2,0,0.4,0,0.6-0.1l0.1,1.1C19.4,27.7,19,27.8,18.6,27.8"/>
<path class="st0" d="M27,27.7c0-0.3,0-0.6,0-0.9l0,0c-0.3,0.7-1,1.1-1.8,1.1c-0.8,0.1-1.5-0.6-1.6-1.4c0-0.1,0-0.1,0-0.2
	c0-1.3,1.3-1.9,3.2-1.9V24c0-0.6-0.3-0.9-1.1-0.9c-0.5,0-1.1,0.1-1.6,0.4l-0.3-1.1c0.7-0.2,1.4-0.4,2.1-0.4c1.8,0,2.3,0.7,2.3,1.9
	v2.4c0,0.4,0,1,0,1.4L27,27.7z M26.9,25.2c-1.5,0-1.8,0.4-1.8,0.9c0,0.3,0.2,0.6,0.6,0.6c0,0,0.1,0,0.1,0c0.7,0,1.2-0.6,1.2-1.3
	V25.2z"/>
<path class="st0" d="M38.8,27.7c0-0.3,0-0.6,0.1-0.9l0,0c-0.3,0.7-1,1.1-1.8,1c-1.3,0-2-1-2-2.6c-0.2-1.6,1-3,2.5-3.1
	c0.1,0,0.3,0,0.4,0c0.2,0,0.5,0,0.7,0v-2.5h1.4v8.1H38.8z M38.7,23.3c-0.2-0.1-0.5-0.1-0.7-0.1c-0.8,0-1.4,0.5-1.4,1.9
	c0,1,0.3,1.6,0.9,1.6s1.2-0.9,1.2-1.8V23.3z"/>
<path class="st0" d="M32.8,27.7v-3.5c0-0.6-0.2-0.9-0.7-0.9c-0.7,0-1.3,0.8-1.3,1.8v2.7h-1.4v-5.5h1.3c0,0.3,0,0.7-0.1,1l0,0
	c0.4-0.7,1.1-1.1,1.9-1.1c1.2,0,1.7,0.8,1.7,1.8v3.9L32.8,27.7z"/>
<path class="st0" d="M22.9,26.7c-0.2,0.1-0.3,0-0.5-0.1c-0.1-0.2-0.1-0.3-0.1-1.2v-5.9h-1.4V26c0,0.5,0,1.8,1.4,1.8
	c0.2,0,0.5,0,0.7-0.1L22.9,26.7z"/>
<path class="st0" d="M24.6,16.7c0.5,1,1.8,1.3,2.7,0.8c0.6-0.4,1-1,1-1.8V4.5h-2.5v4.1c0,1.6,0,4,0.1,5.3c-0.5-1-1-2.1-1.6-3.1
	l-3.1-5.3c-0.5-1-1.8-1.3-2.7-0.8c-0.6,0.4-1,1-1,1.8v11.2H20V13c0-1.6-0.1-3.6-0.1-4.8c0.4,0.9,0.8,1.8,1.4,2.8L24.6,16.7z"/>
<path class="st0" d="M34.6,4.4c-1.6,0-3.2,0.1-4.2,0.1V15c0,0.8,0.4,1.6,1,2.1c0.8,0.5,1.7,0.7,2.6,0.6c4.3,0,7.2-2.4,7.2-6.9
	S38.7,4.4,34.6,4.4 M36.9,14.7c-0.5,0.4-1.2,0.6-1.8,0.7c-0.4,0-0.8,0-1.2,0c-0.4,0-0.9,0-0.9-0.5V6.6c0.4,0,1,0,1.5,0
	c3,0,4.1,1.7,4.1,4.5C38.6,12.4,38,13.8,36.9,14.7"/>
<path class="st0" d="M57.6,12.1l-1.4-1.6c0,0-0.9,0.7-3.7-0.3c-1.6-0.8-3.1-1.9-4.3-3.2c1.2-0.3,2.4-0.2,3.5,0.3
	c-1.3-1.2-2.1-4.4-2.1-4.4s3.2,0.7,3.6,2.1c-0.2-1.4-0.2-2.9,0-4.3c0,0,2.5,2.1,2.9,3.9C56.9,1.6,58.6,1,58.6,1s-0.1,2.9,0.1,5.9
	c-0.1,1-0.3,2-0.8,2.9l0.1,0.5C57.4,10.6,57.6,11.6,57.6,12.1L57.6,12.1z"/>
<path class="st0" d="M61.2,9.9c-0.6-1.3-1-2.7-1.2-4.1c0-1.7,0.2-3.5,0.7-5.1c0.9,0.8,1.6,1.8,1.9,2.9C63.1,2.2,63.9,1,64.9,0
	c0.6,1.2,0.8,2.5,0.8,3.8c1-0.8,2.3-1.4,3.6-1.7c0.3,1.6-0.2,3.2-1.1,4.4c2.9-0.8,3.3,0.2,3.3,0.2s-1.9,1.8-3.4,3S63,10.7,63,10.7
	l-0.3,0.4c-0.3,0.1-0.6,0.3-0.8,0.5C61.9,11,61.8,10.1,61.2,9.9"/>
<path class="st0" d="M64.8,13.1c1.5-0.8,3-1.6,4.4-2.6c1.8-1,3.6-1.8,5.6-2.2c-1,1-2.2,1.8-3.4,2.5c1.3,0.3,2.7,0.2,4-0.2
	c-0.8,0.9-1.7,1.6-2.8,2.1c1.8,0.8,1.4,1,1.4,1C72.5,14.5,71,15,69.4,15c0.7,0.5,1.3,1.2,1.6,2c-1.2-1.1-2.6-2-4.2-2.6
	c-0.5-0.2-1-0.3-1.5-0.3c0.1-0.1,0.1-0.3,0-0.5C65.2,13.4,65,13.2,64.8,13.1"/>
<path class="st0" d="M54.9,15.3l-1,0.2c-0.6,0.7-1.3,1.3-2,1.8c-2.4,1.5-7.2,0.3-7.2,0.3c0.8-0.9,1.7-1.6,2.7-2.2
	c-1.5-0.3-2.9-1-3.9-2.1c0,0,3.1-1.3,4-1.1c-1-0.3-1.9-0.8-2.6-1.6c0,0,3.1-0.6,4.1,0.4c-0.5-0.7-0.7-1.5-0.7-2.3
	c1.3,0.9,2.5,1.9,3.7,2.9c1,1,2.3,2.6,2.3,2.6l0.8,0.2c-0.2,0.1-0.3,0.4-0.4,0.6c0,0.1,0,0.2,0,0.3"/>
<path class="st0" d="M57.3,18.1c-0.3,0.6-0.5,1.2-0.5,1.9c0.6,4.8-4.1,8.3-4.1,8.3s-0.6-0.6-0.2-4c-0.8,1.3-2.2,2.1-3.8,2.1
	c0.4-1.3,1-2.5,1.7-3.7c-4,0.6-4.4,0-4.4,0c0.6-0.9,1.3-1.6,2.1-2.3c-1.2,0.1-1.4-0.4-1.4-0.4c1.4-0.7,2.9-1.3,4.4-1.7
	c1.4-0.2,2.8-0.3,4.1-0.2l0.3-0.2c0.2,0.2,0.4,0.3,0.7,0.3C56.7,18.2,57,18.2,57.3,18.1"/>
<path class="st0" d="M61,20.4c0.2,0.3,0.4,0.6,0.7,0.8c4.9,3.7,6.7,6.8,6.7,6.8c-1.3-0.5-2.6-1-3.8-1.7c0.5,0.6,0.9,1.3,1.2,2
	c-1.2-0.6-2.4-1.3-3.4-2.2c-0.1,1.1-0.6,2.2-1.5,3c-1-0.7-1.7-1.8-1.8-3c-0.5,1.1-2.7,2.7-2.7,2.7c0.3-1.4,0.7-2.7,1.3-4
	c0.7-1.2,1.5-2.3,2.3-3.3v-1.6C60.2,20.2,60.5,20.5,61,20.4L61,20.4"/>
<path class="st0" d="M63.9,17.3l2.8,1.2c1.3-0.5,2.7-0.7,4.2-0.8c1.5,0.2,2.9,0.7,4.3,1.3c-1.1,0.3-2.2,0.6-3.3,1
	c3.3,0.9,3.2,1.5,3.2,1.5c-1.3-0.1-2.7-0.2-4-0.2c0.8,0.8,1.4,1.8,1.8,2.9c0,0-3.2,0-4.2-0.9c0.1,1.1-0.1,2.3-0.4,3.3
	c0,0-0.2-0.7-3.2-3.5c-1-0.9-0.5-3.4-0.5-3.4l-0.8-0.9c0-0.2,0-0.3,0-0.5c-0.1-0.4-0.2-0.8-0.4-1.2c0.1,0,0.2,0,0.4,0"/>
<path class="st0" d="M63.4,18.5c-0.2-0.6-0.5-1.2-0.8-1.8c0.2,0,2.9,0.4,2.1-0.5c-0.5-0.4-1-0.8-1.6-1.1c0.1-0.1,2.7-1.2,1.5-1.5
	c-0.3-0.1-0.7-0.1-1-0.1l-0.9,0l0.4-0.8c0.8-1.4,0.4-1.8-0.9-0.8l-0.7,0.5c0-0.1,0-2.9-0.8-2c-0.3,0.5-0.6,1.1-0.8,1.8
	c-0.1-0.1-1.6-2.5-1.8-1.2c0,0.3,0,0.7,0.1,1l0.2,0.9l-0.8-0.3c-1.5-0.6-1.8-0.1-0.7,1l0.6,0.7c-0.1,0-2.9,0.4-1.9,1.1
	c0.6,0.3,1.2,0.5,1.8,0.6l-0.7,0.6c-0.2,0.2-1.3,1.3-0.3,1.3c0.3,0,0.7-0.1,1-0.2l0.9-0.3c0,0.2-0.8,2.8,0.2,2.2
	c0.3-0.2,0.5-0.5,0.7-0.7l0.6-0.7l0.3,0.8c0.5,1.5,1.1,1.5,1.2-0.2l0.1-0.9l0.7,0.5C62.3,18.4,63.6,19.3,63.4,18.5"/>
</svg>
