<svg id="Layer_1" data-name="Layer 1" xmlns="http://www.w3.org/2000/svg" viewBox="0 0 173.22 62.59"><defs><style>.cls-1{fill:#fff;}</style></defs><title>S_Care_words</title><path class="cls-1" d="M126.49,56.25a13,13,0,0,0-18.34,0l-.83.72-.72-.72A13,13,0,0,0,88.25,74.6l.73.72s13.19,10.93,18.34,17.93c5.26-7,18.35-17.93,18.35-17.93l.72-.72A12.92,12.92,0,0,0,126.49,56.25Z" transform="translate(-70.77 -52.17)"/><path class="cls-1" d="M117.84,114.76a4.51,4.51,0,0,1-4.5-4.5V93.77a4.51,4.51,0,0,1,1.34-3.15l17.5-14.93a1,1,0,0,0,.5-.52l.14-.12a3.7,3.7,0,0,1,2.54-1,3.66,3.66,0,0,1,2.53,1A3.3,3.3,0,0,1,139,77.44,3.52,3.52,0,0,1,137.89,80L126.1,91.6l0,.06a1.78,1.78,0,0,0-.23.77A1.23,1.23,0,0,0,127,93.6a1.27,1.27,0,0,0,.87-.3l11.74-11.65a5.54,5.54,0,0,0,1.73-4,5.83,5.83,0,0,0-1.73-4.23,6,6,0,0,0-4.16-1.75,5.48,5.48,0,0,0-1.61.28V56.66a4.5,4.5,0,0,1,9,0l1,27.33a4.5,4.5,0,0,1-1.34,3.14l-11.87,14.15a4.81,4.81,0,0,0-1.53,3.62v5.36a4.5,4.5,0,0,1-4.49,4.5Z" transform="translate(-70.77 -52.17)"/><path class="cls-1" d="M90.11,114.76a4.51,4.51,0,0,1-4.5-4.5V104.9a4.87,4.87,0,0,0-1.55-3.66L72.13,87.15A4.53,4.53,0,0,1,70.77,84l1-27.3a4.5,4.5,0,1,1,9,0V72a5.37,5.37,0,0,0-1.61-.28A6,6,0,0,0,75,73.42a5.87,5.87,0,0,0-1.73,4.23,5.55,5.55,0,0,0,1.74,4L86.67,93.3a1.23,1.23,0,0,0,2-.87,1.79,1.79,0,0,0-.24-.77L76.75,80a3.56,3.56,0,0,1-1.06-2.58,3.32,3.32,0,0,1,1-2.38,3.63,3.63,0,0,1,5.08,0l.21.21a1,1,0,0,0,.5.48l17.56,14.9a4.49,4.49,0,0,1,1.32,3.13v16.49a4.51,4.51,0,0,1-4.5,4.5Z" transform="translate(-70.77 -52.17)"/><path class="cls-1" d="M169.74,74.08c.57,1.43,1.76,2,3.84,2s3.42-1,3.42-2.75a1.53,1.53,0,0,0-.59-1.3c-.49-.32-.49-.32-3-1-3.13-.84-4.58-2.4-4.58-4.91,0-4.11,2.75-6.62,7.26-6.62,3.29,0,5.37,1,6.34,3.13l-3.43,2a3.23,3.23,0,0,0-3.18-1.76A2.58,2.58,0,0,0,173,65.55c0,1.13.7,1.65,3.15,2.32a9.67,9.67,0,0,1,3.51,1.43,3.78,3.78,0,0,1,1.51,3.32c0,4.43-2.72,6.86-7.74,6.86a10.59,10.59,0,0,1-5.48-1.3,4.18,4.18,0,0,1-1.7-2.1Z" transform="translate(-70.77 -52.17)"/><path class="cls-1" d="M184.54,70.62c.73-4.15,2.59-5.77,6.72-5.77,3.86,0,5.67,1.4,5.67,4.37a13,13,0,0,1-.24,2.35l-.35,2.1c-.76,4.19-2.6,5.78-6.73,5.78-3.91,0-5.69-1.38-5.69-4.37a14.23,14.23,0,0,1,.24-2.35Zm8.26.79a9.84,9.84,0,0,0,.16-1.68c0-1.16-.62-1.75-1.89-1.75-1.59,0-2.29.89-2.75,3.43l-.24,1.51a8.28,8.28,0,0,0-.19,1.62c0,1.21.59,1.78,1.89,1.78,1.59,0,2.32-.89,2.75-3.4Z" transform="translate(-70.77 -52.17)"/><path class="cls-1" d="M210.75,77a6.47,6.47,0,0,1-5.5,2.43c-3.46,0-5.32-1.7-5.32-4.83a16.23,16.23,0,0,1,.3-2.78l.1-.7c.44-2.35.9-3.49,1.87-4.51a6,6,0,0,1,4.59-1.78c2.83,0,4.56,1.1,5.29,3.34L209,69.38a2.06,2.06,0,0,0-2.1-1.4c-1.43,0-2.22,1-2.65,3.48L204,72.59a10.35,10.35,0,0,0-.14,1.7c0,1.41.57,2,1.86,2a2.87,2.87,0,0,0,2.49-1.38Z" transform="translate(-70.77 -52.17)"/><path class="cls-1" d="M215.54,65.17h3.94l-2.46,14h-3.94Zm1-5.51h3.94l-.65,3.73h-3.94Z" transform="translate(-70.77 -52.17)"/><path class="cls-1" d="M230,70.14a3.1,3.1,0,0,0,.11-.79c0-.91-.59-1.37-1.78-1.37a3.82,3.82,0,0,0-2.84,1.35l-2.37-1.89a6.57,6.57,0,0,1,5.56-2.59,6.85,6.85,0,0,1,4.37,1.29,3.24,3.24,0,0,1,1,2.57,16,16,0,0,1-.29,2.61l-1.38,7.83H229.3l-.13-.64a5,5,0,0,1-3.4.94c-3.08,0-4.54-1.13-4.54-3.48a6.16,6.16,0,0,1,1.32-4.16c.81-.86,2.08-1.21,4.35-1.21h3Zm-2.59,3a2.48,2.48,0,0,0-1.78.51,2.63,2.63,0,0,0-.59,1.73c0,.75.51,1.08,1.8,1.08,1.6,0,2.14-.49,2.43-2.19l.22-1.13Z" transform="translate(-70.77 -52.17)"/><path class="cls-1" d="M244,59.88l-2.32,13.23a6.76,6.76,0,0,0-.16,1.24c0,1.24.51,1.62,2.1,1.62H244l-.57,3.18h-.54c-4,0-5.37-.89-5.37-3.59a20,20,0,0,1,.35-3.26l2.22-12.42Z" transform="translate(-70.77 -52.17)"/><path class="cls-1" d="M182,108.68c-.81,3.8-3.16,5.53-7.54,5.53-2.29,0-3.8-.46-4.88-1.46a5,5,0,0,1-1.43-3.75,19.51,19.51,0,0,1,.35-3.08l.75-4.18c.52-3,1.06-4.24,2.35-5.48s3-1.86,5.51-1.86a7.23,7.23,0,0,1,4.78,1.35,4.66,4.66,0,0,1,1.43,3.43,4.25,4.25,0,0,1-.11.94l-3.86.27a3.15,3.15,0,0,0,0-.46c0-1.43-.81-2.19-2.35-2.19-2.24,0-3.13,1.11-3.78,4.78l-.62,3.57a13.87,13.87,0,0,0-.27,2.4c0,1.64.73,2.37,2.4,2.37a3.2,3.2,0,0,0,3.43-2.64Z" transform="translate(-70.77 -52.17)"/><path class="cls-1" d="M193.39,104.9a3.1,3.1,0,0,0,.11-.79c0-.91-.59-1.37-1.78-1.37a3.8,3.8,0,0,0-2.83,1.35l-2.38-1.89a6.57,6.57,0,0,1,5.56-2.59,6.83,6.83,0,0,1,4.37,1.29,3.24,3.24,0,0,1,1,2.57,16.24,16.24,0,0,1-.29,2.62l-1.38,7.82h-3.08l-.13-.64a5,5,0,0,1-3.4.94c-3.08,0-4.54-1.13-4.54-3.48a6.13,6.13,0,0,1,1.33-4.16c.81-.86,2.07-1.21,4.34-1.21h3.05Zm-2.59,3a2.48,2.48,0,0,0-1.78.51,2.63,2.63,0,0,0-.59,1.73c0,.76.51,1.08,1.8,1.08,1.6,0,2.14-.49,2.43-2.19l.22-1.13Z" transform="translate(-70.77 -52.17)"/><path class="cls-1" d="M202.49,99.93h3l.35.92a4,4,0,0,1,2.89-1.24,5.45,5.45,0,0,1,3,.94l-2.27,3.21a2.41,2.41,0,0,0-1.67-.81c-1.33,0-2.08,1.22-2.59,4.24L204,113.91H200Z" transform="translate(-70.77 -52.17)"/><path class="cls-1" d="M216.05,108.24a4.74,4.74,0,0,0-.11.9c0,1.35.73,2,2.21,2a3.4,3.4,0,0,0,3-1.46l2.54,2.08c-1.35,1.76-3,2.43-5.91,2.43-3.92,0-5.7-1.46-5.7-4.64a15.55,15.55,0,0,1,.27-2.73l.16-.89c.41-2.35.92-3.59,1.84-4.56a6.42,6.42,0,0,1,4.94-1.78c3.78,0,5.59,1.59,5.59,4.88a15.59,15.59,0,0,1-.44,3.4H216.1Zm5.13-3a4.43,4.43,0,0,0,.1-1c0-1.21-.62-1.81-1.91-1.81a2.73,2.73,0,0,0-2.78,2.46l-.06.32Z" transform="translate(-70.77 -52.17)"/></svg>