<?xml version="1.0" encoding="utf-8"?>
<!-- Generator: Adobe Illustrator 23.1.1, SVG Export Plug-In . SVG Version: 6.00 Build 0)  -->
<svg version="1.1" id="Layer_1" xmlns="http://www.w3.org/2000/svg" xmlns:xlink="http://www.w3.org/1999/xlink" x="0px" y="0px"
	 viewBox="0 0 73 62.6" style="enable-background:new 0 0 73 62.6;" xml:space="preserve">
<style type="text/css">
	.st0{fill:#FFFFFF;}
</style>
<title>S_Care_words</title>
<g>
	<path class="st0" d="M55.7,4.1c-5.1-5-13.3-5-18.3,0l-0.8,0.7l-0.7-0.7c-5.4-4.8-13.6-4.2-18.3,1.1c-4.3,4.9-4.3,12.3,0,17.2
		l0.7,0.7c0,0,13.2,10.9,18.3,17.9c5.3-7,18.3-17.9,18.3-17.9l0.7-0.7C60.7,17.4,60.8,9.3,55.7,4.1C55.8,4.1,55.7,4.1,55.7,4.1z"/>
	<path class="st0" d="M47.1,62.6c-2.5,0-4.5-2-4.5-4.5V41.6c0-1.2,0.5-2.3,1.3-3.2l17.5-14.9c0.2-0.1,0.4-0.3,0.5-0.5l0.1-0.1
		c0.7-0.6,1.6-1,2.5-1c0.9,0,1.8,0.4,2.5,1s1.1,1.5,1.1,2.4c0,1-0.4,1.9-1.1,2.6L55.3,39.4v0.1c-0.1,0.2-0.2,0.5-0.2,0.8
		c0,0.6,0.5,1.1,1.1,1.2c0.3,0,0.6-0.1,0.9-0.3l11.7-11.7c1.1-1,1.7-2.5,1.7-4c0-1.6-0.6-3.1-1.7-4.2s-2.6-1.7-4.2-1.8
		c-0.5,0-1.1,0.1-1.6,0.3V4.5C63,2,65,0,67.5,0S72,2,72,4.5l1,27.3c0,1.2-0.5,2.3-1.3,3.1L59.9,49.1c-1,0.9-1.6,2.3-1.5,3.6v5.4
		c0,2.5-2,4.5-4.5,4.5H47.1z"/>
	<path class="st0" d="M19.3,62.6c-2.5,0-4.5-2-4.5-4.5v-5.4c0-1.4-0.5-2.7-1.6-3.7L1.4,35C0.5,34.1,0,33,0,31.8L1,4.5C1,2,3,0,5.5,0
		S10,2,10,4.5v15.3c-0.5-0.2-1.1-0.3-1.6-0.3c-1.6,0-3,0.6-4.2,1.7c-1.1,1.1-1.7,2.6-1.7,4.2c0,1.5,0.6,3,1.7,4l11.7,11.7
		c0.5,0.4,1.3,0.3,1.7-0.2c0.2-0.2,0.3-0.4,0.3-0.7s-0.1-0.5-0.2-0.8L6,27.8c-0.7-0.7-1.1-1.6-1.1-2.6c0-0.9,0.4-1.8,1-2.4
		c1.4-1.4,3.7-1.4,5.1,0l0.2,0.2c0.1,0.2,0.3,0.4,0.5,0.5l17.6,14.9c0.8,0.8,1.3,2,1.3,3.1V58c0,2.5-2,4.5-4.5,4.5L19.3,62.6z"/>
</g>
</svg>
